<svg xmlns="http://www.w3.org/2000/svg" viewBox="0 0 3600 1000" role="img" aria-label="Cargo bay of station NOVA, powered down">
  <!-- STATION NOVA — Cargo Bay panorama. Hand-authored, flat vector, rounded friendly
       geometry, 2-3 tone shading, gradients only for glows (PLAN decision 10).

       Colours are hex equivalents of the OKLCH palette (decision 9: bg oklch(18% .03 60),
       amber accent oklch(75% .15 70)) — SVG presentation attributes stay hex so no renderer
       has to care about colour-space support, exactly as assets/pip.svg does.

       PARALLAX: layer-back 0.55x · layer-mid 1.00x · layer-front 1.06x. The back layer loses
       its right quarter to parallax, so no back art matters past x ~2650.

       ADDRESSABLE PARTS
         #amber-strips   emergency lighting; comes up to full on the crane-powered flag
         #huge-crate     the wall crate; the cargo-crate scene effect slides it left
         #crawl-hatch    gasp #1, drawn behind the crate
         #hatch-door     swings open on the hatch-open flag
         #glow-paint     the four beam-only fragments and their circled order marks
         #plush          the unicorn, up in the netting -->

  <defs>
    <radialGradient id="cg-lamp" cx="50%" cy="50%" r="50%">
      <stop offset="0%" stop-color="#ffd474" stop-opacity="0.55"/>
      <stop offset="55%" stop-color="#e99b2a" stop-opacity="0.18"/>
      <stop offset="100%" stop-color="#e99b2a" stop-opacity="0"/>
    </radialGradient>
    <radialGradient id="cg-paintglow" cx="50%" cy="50%" r="50%">
      <stop offset="0%" stop-color="#74f79e" stop-opacity="0.34"/>
      <stop offset="100%" stop-color="#74f79e" stop-opacity="0"/>
    </radialGradient>
    <linearGradient id="cg-wall" x1="0" y1="0" x2="0" y2="1">
      <stop offset="0%" stop-color="#22150a"/>
      <stop offset="100%" stop-color="#1b0e04"/>
    </linearGradient>

    <!-- One crate, drawn once. `color` on each <use> picks its tone. -->
    <g id="cg-crate">
      <rect x="0" y="0" width="200" height="200" rx="16" fill="currentColor"/>
      <rect x="0" y="0" width="200" height="34" rx="16" fill="#ffffff" fill-opacity="0.09"/>
      <rect x="0" y="176" width="200" height="24" rx="12" fill="#000000" fill-opacity="0.20"/>
      <rect x="24" y="44" width="152" height="16" rx="8" fill="#000000" fill-opacity="0.22"/>
      <rect x="24" y="142" width="152" height="16" rx="8" fill="#000000" fill-opacity="0.22"/>
      <rect x="86" y="52" width="28" height="100" rx="14" fill="#000000" fill-opacity="0.22"/>
      <circle cx="100" cy="102" r="15" fill="#ffffff" fill-opacity="0.10"/>
    </g>
  </defs>

  <style>
    /* Emergency strips idle low and come up when the conduit run is complete. */
    #amber-strips { opacity: 0.34; transition: opacity 1.8s ease; }
    .nv-flag-crane-powered #amber-strips { opacity: 1; }
    #console-screen { opacity: 0.25; transition: opacity 1.2s ease; }
    .nv-flag-crane-powered #console-screen { opacity: 1; }
    /* Beam-only art. The 90% veil is NOT enough on its own: measured in Chrome, all four
       code digits and the unicorn read straight through it, which lets the whole torch beat
       be skipped and shows the plush before it is clickable. Off until the torch is lit;
       after that the beam is what decides where they are visible. */
    #glow-paint, #plush { opacity: 0; transition: opacity 1.4s ease; }
    .nv-flag-torch-charged #glow-paint,
    .nv-flag-torch-charged #plush { opacity: 1; }
    /* The scene effect sets the transform; the easing lives here. */
    #huge-crate { transition: transform 1.5s cubic-bezier(.32,.72,.2,1); }
    #hatch-door {
      transform-box: view-box; transform-origin: 3010px 690px;
      transition: transform 1.3s cubic-bezier(.3,.8,.3,1);
    }
    .nv-flag-hatch-open #hatch-door { transform: rotate(-62deg); }
  </style>

  <rect width="3600" height="1000" fill="#1b0e04"/>

  <!-- ==================================================================== BACK (0.55x) -->
  <g id="layer-back">
    <rect x="0" y="0" width="2700" height="880" fill="url(#cg-wall)"/>

    <!-- hull panelling -->
    <g fill="#22150a">
      <rect x="40" y="120" width="290" height="640" rx="18"/>
      <rect x="360" y="120" width="290" height="640" rx="18"/>
      <rect x="680" y="120" width="290" height="640" rx="18"/>
      <rect x="1000" y="120" width="290" height="640" rx="18"/>
      <rect x="1320" y="120" width="290" height="640" rx="18"/>
      <rect x="1640" y="120" width="290" height="640" rx="18"/>
      <rect x="1960" y="120" width="290" height="640" rx="18"/>
      <rect x="2280" y="120" width="290" height="640" rx="18"/>
    </g>
    <g fill="#2c1e11" opacity="0.55">
      <rect x="40" y="120" width="290" height="26" rx="13"/>
      <rect x="680" y="120" width="290" height="26" rx="13"/>
      <rect x="1320" y="120" width="290" height="26" rx="13"/>
      <rect x="1960" y="120" width="290" height="26" rx="13"/>
      <rect x="2280" y="120" width="290" height="26" rx="13"/>
    </g>

    <!-- a bulkhead arch two bays deep -->
    <path d="M1180 780V420a260 260 0 0 1 520 0v360h-70V430a190 190 0 0 0-380 0v350z" fill="#2c1e11"/>
    <path d="M1250 780V430a190 190 0 0 1 380 0v350" fill="#160c05"/>

    <!-- dim shelf rack -->
    <g fill="#2c1e11">
      <rect x="380" y="360" width="420" height="18" rx="9"/>
      <rect x="380" y="560" width="420" height="18" rx="9"/>
      <rect x="380" y="360" width="18" height="420" rx="9"/>
      <rect x="782" y="360" width="18" height="420" rx="9"/>
    </g>
    <g fill="#3a2a1b" opacity="0.7">
      <rect x="414" y="284" width="96" height="76" rx="10"/>
      <rect x="524" y="300" width="120" height="60" rx="10"/>
      <rect x="414" y="470" width="140" height="90" rx="10"/>
      <rect x="580" y="486" width="90" height="74" rx="10"/>
      <rect x="690" y="454" width="80" height="106" rx="10"/>
    </g>

    <!-- struts -->
    <g stroke="#2c1e11" stroke-width="14" stroke-linecap="round" fill="none" opacity="0.8">
      <path d="M2000 160 2160 420 2000 680"/>
      <path d="M2160 160 2000 420 2160 680"/>
      <path d="M900 160v620"/>
      <path d="M2600 160v620"/>
    </g>

    <rect x="0" y="860" width="2700" height="140" fill="#160c05"/>
  </g>

  <!-- ===================================================================== MID (1.00x) -->
  <g id="layer-mid">
    <!-- floor -->
    <rect x="0" y="840" width="3600" height="160" fill="#1f130a"/>
    <rect x="0" y="840" width="3600" height="10" rx="5" fill="#2e2116"/>
    <g fill="#2e2116" opacity="0.55">
      <rect x="120" y="892" width="300" height="10" rx="5"/>
      <rect x="640" y="928" width="420" height="10" rx="5"/>
      <rect x="1400" y="890" width="360" height="10" rx="5"/>
      <rect x="2100" y="936" width="500" height="10" rx="5"/>
      <rect x="2900" y="894" width="420" height="10" rx="5"/>
    </g>

    <!-- shuttle airlock -->
    <g>
      <rect x="52" y="360" width="266" height="500" rx="34" fill="#322d25"/>
      <rect x="76" y="384" width="218" height="452" rx="26" fill="#585248"/>
      <rect x="76" y="384" width="218" height="60" rx="26" fill="#80796d" fill-opacity="0.5"/>
      <circle cx="185" cy="560" r="62" fill="#22150a"/>
      <circle cx="185" cy="560" r="62" fill="none" stroke="#80796d" stroke-width="12"/>
      <circle cx="163" cy="538" r="16" fill="#80796d" fill-opacity="0.35"/>
      <rect x="120" y="700" width="130" height="18" rx="9" fill="#322d25"/>
      <rect x="120" y="740" width="130" height="18" rx="9" fill="#322d25"/>
      <circle cx="185" cy="810" r="14" fill="#e99b2a"/>
    </g>

    <!-- supply lockers -->
    <g>
      <rect x="276" y="376" width="490" height="486" rx="22" fill="#322d25"/>
      <!-- open bay: the torch lives in here -->
      <rect x="296" y="396" width="290" height="450" rx="16" fill="#0b0401"/>
      <rect x="296" y="396" width="290" height="26" rx="13" fill="#585248" fill-opacity="0.4"/>
      <rect x="316" y="612" width="250" height="14" rx="7" fill="#322d25"/>
      <!-- the hand-crank torch on its shelf -->
      <g>
        <rect x="360" y="540" width="132" height="52" rx="24" fill="#585248"/>
        <rect x="360" y="540" width="132" height="20" rx="10" fill="#80796d"/>
        <path d="M360 536 322 514v104l38-22z" fill="#80796d"/>
        <circle cx="342" cy="566" r="20" fill="#4b311d"/>
        <circle cx="510" cy="566" r="34" fill="#322d25"/>
        <rect x="504" y="522" width="12" height="46" rx="6" fill="#80796d"/>
        <circle cx="510" cy="520" r="12" fill="#e99b2a"/>
      </g>
      <!-- open door leaf, swung out to the left -->
      <path d="M296 396 236 428v382l60 36z" fill="#585248"/>
      <path d="M296 396 236 428v382l60 36z" fill="#000000" fill-opacity="0.25"/>
      <!-- closed bay with the sticky note -->
      <rect x="600" y="396" width="152" height="450" rx="16" fill="#585248"/>
      <rect x="600" y="396" width="152" height="24" rx="12" fill="#80796d" fill-opacity="0.5"/>
      <rect x="616" y="640" width="120" height="16" rx="8" fill="#322d25"/>
      <rect x="620" y="470" width="124" height="118" rx="8" fill="#f8c655" transform="rotate(-3 682 529)"/>
      <g transform="rotate(-3 682 529)" fill="#9f6202" opacity="0.75">
        <rect x="636" y="496" width="92" height="9" rx="4"/>
        <rect x="636" y="520" width="80" height="9" rx="4"/>
        <rect x="636" y="544" width="88" height="9" rx="4"/>
      </g>
    </g>

    <!-- crate stacks -->
    <use href="#cg-crate" transform="translate(800 660)" color="#573b22"/>
    <use href="#cg-crate" transform="translate(1010 690) scale(0.85)" color="#4b311d"/>
    <use href="#cg-crate" transform="translate(830 470) scale(0.95)" color="#654d34"/>

    <!-- conduit panel + backup battery -->
    <g>
      <rect x="1250" y="380" width="430" height="380" rx="22" fill="#322d25"/>
      <rect x="1272" y="402" width="386" height="336" rx="16" fill="#160c05"/>
      <rect x="1272" y="402" width="386" height="28" rx="14" fill="#585248" fill-opacity="0.35"/>
      <!-- battery on the west side -->
      <rect x="1294" y="470" width="86" height="200" rx="14" fill="#4b311d"/>
      <rect x="1294" y="470" width="86" height="30" rx="14" fill="#654d34"/>
      <rect x="1316" y="452" width="42" height="24" rx="10" fill="#585248"/>
      <!-- dead conduit run, drawn dim: the close-up is where it gets sorted out -->
      <g stroke="#585248" stroke-width="18" stroke-linecap="round" fill="none" opacity="0.75">
        <path d="M1400 520h84"/>
        <path d="M1520 520v70"/>
        <path d="M1520 620h80"/>
        <path d="M1440 660v-40"/>
      </g>
      <circle cx="1626" cy="620" r="18" fill="#9f6202"/>
      <path d="M1600 700h44l-22-38z" fill="#e99b2a" opacity="0.8"/>
      <rect x="1290" y="700" width="120" height="12" rx="6" fill="#322d25"/>
    </g>

    <!-- the crate wall, with the beam-only paint -->
    <use href="#cg-crate" transform="translate(1800 660)" color="#4b311d"/>
    <use href="#cg-crate" transform="translate(2010 690) scale(0.85)" color="#573b22"/>
    <use href="#cg-crate" transform="translate(2500 660)" color="#573b22"/>
    <use href="#cg-crate" transform="translate(1830 480) scale(0.9)" color="#654d34"/>
    <use href="#cg-crate" transform="translate(2020 500) scale(0.8)" color="#4b311d"/>
    <use href="#cg-crate" transform="translate(2510 470) scale(0.95)" color="#4b311d"/>
    <use href="#cg-crate" transform="translate(1860 310) scale(0.85)" color="#573b22"/>
    <use href="#cg-crate" transform="translate(2040 330) scale(0.75)" color="#654d34"/>
    <use href="#cg-crate" transform="translate(2530 300) scale(0.8)" color="#573b22"/>

    <!-- the locked crate -->
    <g>
      <rect x="2170" y="560" width="320" height="300" rx="20" fill="#573b22"/>
      <rect x="2170" y="560" width="320" height="38" rx="19" fill="#ffffff" fill-opacity="0.09"/>
      <rect x="2170" y="826" width="320" height="34" rx="17" fill="#000000" fill-opacity="0.2"/>
      <rect x="2258" y="626" width="144" height="176" rx="18" fill="#322d25"/>
      <rect x="2274" y="642" width="112" height="44" rx="10" fill="#0b0401"/>
      <g fill="#585248">
        <rect x="2278" y="702" width="30" height="26" rx="7"/>
        <rect x="2316" y="702" width="30" height="26" rx="7"/>
        <rect x="2354" y="702" width="30" height="26" rx="7"/>
        <rect x="2278" y="740" width="30" height="26" rx="7"/>
        <rect x="2316" y="740" width="30" height="26" rx="7"/>
        <rect x="2354" y="740" width="30" height="26" rx="7"/>
      </g>
      <circle cx="2296" cy="664" r="9" fill="#e99b2a"/>
    </g>

    <!-- glow paint: four fragments, each with its circled order mark. Only the torch beam
         ever shows these — the veil over the scene hides them until she sweeps it across. -->
    <g id="glow-paint" font-family="system-ui, sans-serif" text-anchor="middle">
      <g transform="translate(1900 400)">
        <ellipse cx="0" cy="0" rx="150" ry="130" fill="url(#cg-paintglow)"/>
        <text y="30" font-size="132" font-weight="800" fill="#74f79e">4</text>
        <circle cx="82" cy="-58" r="27" fill="none" stroke="#74f79e" stroke-width="5"/>
        <text x="82" y="-48" font-size="34" font-weight="700" fill="#74f79e">3</text>
      </g>
      <g transform="translate(2110 420)">
        <ellipse cx="0" cy="0" rx="150" ry="130" fill="url(#cg-paintglow)"/>
        <text y="30" font-size="132" font-weight="800" fill="#74f79e">2</text>
        <circle cx="82" cy="-58" r="27" fill="none" stroke="#74f79e" stroke-width="5"/>
        <text x="82" y="-48" font-size="34" font-weight="700" fill="#74f79e">1</text>
      </g>
      <g transform="translate(2330 450)">
        <ellipse cx="0" cy="0" rx="150" ry="130" fill="url(#cg-paintglow)"/>
        <text y="30" font-size="132" font-weight="800" fill="#74f79e">7</text>
        <circle cx="82" cy="-58" r="27" fill="none" stroke="#74f79e" stroke-width="5"/>
        <text x="82" y="-48" font-size="34" font-weight="700" fill="#74f79e">4</text>
      </g>
      <g transform="translate(2600 380)">
        <ellipse cx="0" cy="0" rx="150" ry="130" fill="url(#cg-paintglow)"/>
        <text y="30" font-size="132" font-weight="800" fill="#74f79e">9</text>
        <circle cx="82" cy="-58" r="27" fill="none" stroke="#74f79e" stroke-width="5"/>
        <text x="82" y="-48" font-size="34" font-weight="700" fill="#74f79e">2</text>
      </g>
    </g>

    <!-- the crawl hatch, sat behind the crate since before PIP's warranty -->
    <g id="crawl-hatch">
      <rect x="2985" y="520" width="300" height="340" rx="28" fill="#0b0401"/>
      <rect x="2985" y="520" width="300" height="340" rx="28" fill="none" stroke="#585248" stroke-width="14"/>
      <g id="hatch-door">
        <rect x="3000" y="535" width="270" height="310" rx="22" fill="#585248"/>
        <rect x="3000" y="535" width="270" height="46" rx="22" fill="#80796d" fill-opacity="0.5"/>
        <circle cx="3135" cy="690" r="76" fill="#322d25"/>
        <circle cx="3135" cy="690" r="58" fill="none" stroke="#80796d" stroke-width="16"/>
        <g stroke="#80796d" stroke-width="16" stroke-linecap="round">
          <path d="M3135 632v116"/>
          <path d="M3077 690h116"/>
        </g>
        <circle cx="3135" cy="690" r="18" fill="#80796d"/>
        <rect x="3024" y="800" width="90" height="16" rx="8" fill="#322d25"/>
      </g>
    </g>

    <!-- the enormous crate -->
    <g id="huge-crate">
      <rect x="2920" y="340" width="420" height="520" rx="24" fill="#4b311d"/>
      <rect x="2920" y="340" width="420" height="52" rx="24" fill="#ffffff" fill-opacity="0.09"/>
      <rect x="2920" y="820" width="420" height="40" rx="20" fill="#000000" fill-opacity="0.22"/>
      <rect x="2960" y="420" width="340" height="22" rx="11" fill="#000000" fill-opacity="0.22"/>
      <rect x="2960" y="760" width="340" height="22" rx="11" fill="#000000" fill-opacity="0.22"/>
      <rect x="3106" y="432" width="48" height="340" rx="20" fill="#000000" fill-opacity="0.22"/>
      <rect x="2986" y="560" width="128" height="86" rx="12" fill="#654d34"/>
      <rect x="2998" y="574" width="104" height="18" rx="9" fill="#000000" fill-opacity="0.25"/>
      <rect x="2998" y="606" width="76" height="14" rx="7" fill="#000000" fill-opacity="0.25"/>
    </g>

    <!-- Crane console. Drawn AFTER #huge-crate on purpose: it is a floor pedestal standing
         in front of the wall, and once the crate is walked one slot left it parks at
         2450-2870 — right where this console stands. Earlier in the file the crate buried
         it whole, hotspot still glinting over invisible art. The crate must stay above the
         crawl hatch, and the hatch is at 2985-3285, so it never fights this. -->
    <g>
      <rect x="2640" y="520" width="240" height="290" rx="20" fill="#322d25"/>
      <rect x="2660" y="540" width="200" height="120" rx="12" fill="#0b0401"/>
      <rect id="console-screen" x="2672" y="552" width="176" height="96" rx="8" fill="#2fbda7" fill-opacity="0.35"/>
      <g fill="#585248">
        <rect x="2668" y="690" width="56" height="40" rx="12"/>
        <rect x="2732" y="690" width="56" height="40" rx="12"/>
        <rect x="2796" y="690" width="56" height="40" rx="12"/>
        <rect x="2700" y="748" width="120" height="34" rx="16"/>
      </g>
      <circle cx="2660" cy="500" r="10" fill="#9f6202"/>
      <rect x="2748" y="810" width="24" height="52" rx="12" fill="#322d25"/>
    </g>

    <!-- emergency strips -->
    <g id="amber-strips">
      <rect x="0" y="252" width="3600" height="14" rx="7" fill="#e99b2a"/>
      <rect x="0" y="822" width="3600" height="9" rx="5" fill="#e99b2a" opacity="0.7"/>
      <g fill="#ffd474">
        <rect x="180" y="252" width="220" height="14" rx="7"/>
        <rect x="1180" y="252" width="220" height="14" rx="7"/>
        <rect x="2260" y="252" width="220" height="14" rx="7"/>
        <rect x="3180" y="252" width="220" height="14" rx="7"/>
      </g>
      <g fill="url(#cg-lamp)">
        <ellipse cx="290" cy="260" rx="300" ry="180"/>
        <ellipse cx="1290" cy="260" rx="300" ry="180"/>
        <ellipse cx="2370" cy="260" rx="300" ry="180"/>
        <ellipse cx="3290" cy="260" rx="300" ry="180"/>
      </g>
    </g>
  </g>

  <!-- =================================================================== FRONT (1.06x) -->
  <g id="layer-front">
    <!-- ceiling rail and the crane trolley -->
    <g>
      <rect x="2400" y="96" width="1160" height="44" rx="22" fill="#322d25"/>
      <rect x="2400" y="96" width="1160" height="16" rx="8" fill="#80796d" fill-opacity="0.35"/>
      <g fill="#585248">
        <rect x="2470" y="140" width="26" height="40" rx="10"/>
        <rect x="2860" y="140" width="26" height="40" rx="10"/>
        <rect x="3250" y="140" width="26" height="40" rx="10"/>
      </g>
      <g id="crane-trolley">
        <rect x="3060" y="70" width="180" height="96" rx="22" fill="#585248"/>
        <rect x="3060" y="70" width="180" height="30" rx="15" fill="#80796d" fill-opacity="0.5"/>
        <circle cx="3100" cy="150" r="18" fill="#322d25"/>
        <circle cx="3200" cy="150" r="18" fill="#322d25"/>
        <rect x="3142" y="164" width="16" height="150" rx="8" fill="#80796d"/>
        <path d="M3150 314a44 44 0 1 0 0 88 44 44 0 0 1 0-88z" fill="none" stroke="#80796d" stroke-width="14"/>
      </g>
    </g>

    <!-- ceiling netting, with something in it that is not station equipment -->
    <g>
      <path d="M980 74h740v34l-30 130a40 40 0 0 1-40 32H1050a40 40 0 0 1-40-32l-30-130z" fill="#160c05" fill-opacity="0.55"/>
      <g stroke="#585248" stroke-width="6" stroke-linecap="round" opacity="0.85" fill="none">
        <path d="M990 78 1090 262"/>
        <path d="M1070 74 1180 264"/>
        <path d="M1150 74 1264 264"/>
        <path d="M1230 74 1346 262"/>
        <path d="M1310 74 1424 258"/>
        <path d="M1390 74 1500 254"/>
        <path d="M1470 74 1576 248"/>
        <path d="M1550 74 1648 240"/>
        <path d="M1630 74 1712 214"/>
        <path d="M1710 78 1610 262"/>
        <path d="M1630 74 1520 264"/>
        <path d="M1550 74 1436 264"/>
        <path d="M1470 74 1354 262"/>
        <path d="M1390 74 1276 258"/>
        <path d="M1310 74 1200 254"/>
        <path d="M1230 74 1124 248"/>
        <path d="M1150 74 1052 240"/>
        <path d="M1070 74 988 214"/>
        <path d="M980 92h740"/>
        <path d="M994 170h712"/>
        <path d="M1024 246h652"/>
      </g>
      <g id="plush">
        <ellipse cx="1330" cy="186" rx="62" ry="52" fill="#f1e7f4"/>
        <path d="M1288 158c-14-26-6-46 4-54 10 24 26 32 44 30z" fill="#f999da"/>
        <path d="M1372 156c14-24 24-30 32-28 2 16-6 34-22 44z" fill="#f1e7f4"/>
        <path d="M1332 128l16-52 14 54z" fill="#f8c655"/>
        <path d="M1370 178c22-6 34 2 40 14-14 10-30 12-44 6z" fill="#f999da"/>
        <circle cx="1352" cy="176" r="7" fill="#322d25"/>
        <circle cx="1318" cy="182" r="7" fill="#322d25"/>
        <path d="M1332 200q10 8 20 0" stroke="#322d25" stroke-width="5" fill="none" stroke-linecap="round"/>
        <ellipse cx="1310" cy="196" rx="12" ry="8" fill="#f999da" opacity="0.6"/>
      </g>
    </g>

    <!-- foreground pipework and floor lip, for depth -->
    <g opacity="0.9">
      <rect x="-40" y="0" width="3700" height="34" fill="#160c05"/>
      <rect x="-40" y="26" width="3700" height="14" rx="7" fill="#322d25"/>
      <g fill="#322d25">
        <rect x="240" y="34" width="30" height="54" rx="14"/>
        <rect x="1240" y="34" width="30" height="54" rx="14"/>
        <rect x="2240" y="34" width="30" height="54" rx="14"/>
      </g>
      <rect x="-40" y="962" width="3700" height="40" fill="#0b0401"/>
      <rect x="-40" y="956" width="3700" height="12" rx="6" fill="#2e2116"/>
    </g>
  </g>
</svg>
